<svg xmlns="http://www.w3.org/2000/svg" width="1000" height="434" viewBox="0 0 1000 434" version="1.1"><path d="" stroke="none" fill="#080404" fill-rule="evenodd"/><path d="M 769.536 23.942 C 769.216 24.460, 768.672 29.185, 768.326 34.442 L 767.698 44 756.849 44 L 746 44 746 51.500 L 746 59 757 59 C 765.105 59, 768.014 59.329, 768.054 60.250 C 768.083 60.938, 768.061 71.050, 768.003 82.721 C 767.946 94.423, 768.325 104.740, 768.848 105.721 C 769.650 107.223, 770.903 107.448, 776.899 107.168 L 784 106.836 784 83.525 C 784 63.191, 784.202 60.136, 785.582 59.607 C 786.452 59.273, 791.627 59, 797.082 59 L 807 59 807 51.533 L 807 44.066 795.791 43.783 L 784.583 43.500 784.248 34.500 C 784.064 29.550, 783.722 24.938, 783.488 24.250 C 782.981 22.759, 770.438 22.482, 769.536 23.942 M 698.230 71.115 C 692.204 74.098, 687.325 80.167, 685.960 86.380 C 685.211 89.792, 684.946 102.687, 685.168 125.025 L 685.500 158.549 688.718 165.025 C 690.488 168.586, 697.350 178.216, 703.968 186.424 C 711.756 196.084, 716 202.183, 716 203.716 C 716 206.028, 716.183 206.077, 723.750 205.792 L 731.500 205.500 731.156 200.016 C 730.820 194.665, 730.501 194.143, 718.040 178.516 C 711.015 169.707, 704.420 160.925, 703.384 159 C 701.669 155.813, 701.473 152.585, 701.200 122.948 C 700.907 91.056, 700.944 90.341, 703.023 87.698 C 705.955 83.970, 711.249 83.925, 713.662 87.607 C 715.150 89.877, 715.406 93.765, 715.645 117.710 C 715.961 149.452, 715.478 147.655, 726.878 159.478 L 733.255 166.093 738.749 160.554 L 744.244 155.016 738.122 148.471 C 734.755 144.872, 731.948 141.156, 731.885 140.213 C 731.530 134.929, 732.872 132.379, 736.793 130.889 C 740.644 129.424, 744.641 132.105, 756.836 144.336 L 768.129 155.660 768.038 179.180 C 767.988 192.116, 768.233 203.442, 768.581 204.350 C 769.090 205.677, 770.659 206, 776.607 206 L 784 206 784 183.065 C 784 169.496, 784.429 158.981, 785.050 157.315 C 786.620 153.109, 807.793 132.223, 811.842 130.887 C 816.651 129.300, 820.381 132.118, 820.798 137.653 C 821.070 141.267, 820.572 142.178, 814.983 148.277 L 808.871 154.948 813.572 159.974 C 816.158 162.738, 818.813 165, 819.473 165 C 821.388 165, 833.496 151.908, 835.852 147.290 C 837.892 143.290, 838 141.726, 838 116.040 C 838 90.333, 838.099 88.901, 840 87 C 842.617 84.383, 847.179 84.434, 849.595 87.107 C 851.388 89.090, 851.500 91.170, 851.500 122.357 C 851.500 152.883, 851.352 155.776, 849.621 159 C 848.587 160.925, 841.699 170.011, 834.313 179.190 L 820.886 195.881 821.193 200.690 L 821.500 205.500 829.500 205.500 L 837.500 205.500 837.820 202.709 C 838.021 200.961, 842.236 194.799, 849.107 186.209 C 855.138 178.669, 861.240 170.520, 862.666 168.100 C 867.559 159.799, 867.975 156.074, 867.988 120.429 L 868 87.359 865.250 81.951 C 861.180 73.948, 854.718 69.662, 845.976 69.169 C 838.320 68.736, 833.647 70.585, 828.301 76.162 C 822.868 81.830, 821.685 85.983, 821.211 101.044 L 820.784 114.588 814.069 114.588 C 805.876 114.588, 802.190 116.531, 792.304 126.056 C 788.562 129.662, 783.404 134.519, 780.841 136.849 L 776.183 141.086 765.048 130.293 C 752.044 117.689, 746.933 114.544, 739.596 114.633 C 736.793 114.668, 733.961 114.877, 733.302 115.098 C 732.419 115.394, 731.992 111.666, 731.681 100.964 C 731.328 88.782, 730.924 85.772, 729.189 82.370 C 726.797 77.681, 721.102 72.358, 716.355 70.375 C 711.412 68.309, 703.222 68.644, 698.230 71.115 M 346.750 114.786 L 344 115.133 344 151.566 L 344 188 348 188 L 352 188 352 179.056 C 352 170.935, 352.230 169.853, 354.496 167.306 L 356.993 164.500 359.746 167.628 C 361.261 169.349, 365.547 174.636, 369.271 179.378 C 375.976 187.916, 376.085 188, 380.521 188 C 382.984 188, 385 187.759, 385 187.465 C 385 187.170, 380.245 180.622, 374.434 172.913 C 368.623 165.203, 364.010 158.526, 364.184 158.073 C 364.358 157.621, 368.663 152.873, 373.750 147.521 C 378.837 142.169, 383 137.388, 383 136.895 C 383 136.403, 381.087 135.999, 378.750 135.998 C 374.627 135.997, 374.164 136.348, 363.277 147.748 L 352.055 159.500 352.027 137.357 C 351.998 113.613, 352.114 114.110, 346.750 114.786 M 539.750 114.716 L 537 115.133 537 151.566 L 537 188 541.500 188 L 546 188 546 151.607 C 546 119.344, 545.821 115.145, 544.418 114.607 C 543.548 114.273, 542.761 114.067, 542.668 114.150 C 542.576 114.232, 541.263 114.487, 539.750 114.716 M 588.750 114.724 L 586 115.133 586 151.566 L 586 188 590 188 L 594 188 594 178.410 C 594 169.688, 594.204 168.651, 596.250 166.944 C 597.487 165.911, 598.950 165.061, 599.500 165.054 C 600.050 165.046, 603.511 169.194, 607.192 174.270 C 616.850 187.590, 617.308 188, 622.539 188 C 624.993 188, 627 187.747, 627 187.438 C 627 187.128, 622.238 180.603, 616.417 172.937 C 610.596 165.271, 605.984 158.591, 606.167 158.092 C 606.350 157.593, 610.663 152.863, 615.750 147.580 C 620.837 142.297, 625 137.530, 625 136.987 C 625 136.444, 623.141 136, 620.868 136 C 616.354 136, 616.696 135.717, 601.263 152.233 L 594.037 159.967 593.769 137.316 C 593.601 123.212, 593.123 114.599, 592.500 114.490 C 591.950 114.394, 590.263 114.499, 588.750 114.724 M 435.192 118.119 C 433.199 118.861, 432.926 119.561, 433.192 123.239 C 433.478 127.189, 433.725 127.522, 436.585 127.801 C 440.441 128.177, 442.238 126.158, 441.818 121.923 C 441.455 118.266, 438.836 116.763, 435.192 118.119 M 295.200 119.200 C 293.610 120.790, 293.677 124.176, 295.344 126.456 C 298.293 130.489, 304.880 125.642, 303.566 120.407 C 303.081 118.476, 302.313 118, 299.681 118 C 297.876 118, 295.860 118.540, 295.200 119.200 M 561.513 120.941 C 560.684 124.713, 562.447 128.004, 565.285 127.985 C 568.218 127.964, 569.582 126.975, 570.433 124.250 C 571.735 120.076, 570.267 118, 566.012 118 C 562.561 118, 562.092 118.307, 561.513 120.941 M 109 153.500 L 109 188 128.500 188 L 148 188 148 184 L 148 180 133 180 L 118 180 118 168 L 118 156 132 156 L 146 156 146 152 L 146 148 132 148 L 118 148 118 137.527 L 118 127.053 132.750 126.777 L 147.500 126.500 147.810 122.750 L 148.121 119 128.560 119 L 109 119 109 153.500 M 265.062 125.425 C 264.372 126.257, 263.246 128.863, 262.559 131.218 C 261.565 134.627, 260.551 135.865, 257.589 137.289 C 252.958 139.516, 253.004 142.353, 257.680 142.807 L 260.843 143.115 261.171 161.355 C 261.451 176.890, 261.768 180.003, 263.304 182.345 C 266.070 186.561, 270.826 188.992, 276.316 188.996 C 282.386 189.001, 285 187.637, 285 184.465 C 285 182.171, 284.650 182, 279.955 182 C 275.931 182, 274.412 181.503, 272.455 179.545 C 270.040 177.131, 270 176.810, 270 160.045 L 270 143 276.883 143 C 283.132 143, 283.820 142.797, 284.342 140.802 C 285.287 137.188, 283.329 136, 276.427 136 L 270.100 136 269.800 130.260 C 269.483 124.189, 267.645 122.313, 265.062 125.425 M 507.167 125.750 C 506.670 126.713, 505.712 129.208, 505.039 131.296 C 504.188 133.934, 502.603 135.857, 499.842 137.600 C 495.121 140.580, 495.289 142.385, 500.327 142.810 L 504 143.121 504.004 161.310 C 504.007 177.791, 504.197 179.811, 506.026 182.810 C 508.473 186.824, 513.309 189.005, 519.718 188.985 C 525.446 188.966, 526.862 188.207, 527.225 184.956 C 527.482 182.664, 527.157 182.480, 522.379 182.202 C 514.131 181.723, 513.328 180.223, 512.633 164.003 C 512.315 156.579, 512.325 148.817, 512.656 146.753 L 513.256 143 520.191 143 L 527.127 143 526.813 139.750 L 526.500 136.500 519.250 136.206 L 512 135.912 512 129.956 C 512 124.702, 511.768 124, 510.035 124 C 508.955 124, 507.664 124.787, 507.167 125.750 M 173.943 136.495 C 164.134 139.623, 158.540 149.249, 158.541 163 C 158.542 175.515, 164.052 184.196, 174.118 187.539 C 180.473 189.650, 193.531 189.193, 197.293 186.728 C 199.616 185.205, 201.721 180.388, 200.567 179.233 C 200.275 178.942, 196.541 179.431, 192.268 180.322 C 184.303 181.982, 178.872 181.626, 174.253 179.142 C 171.630 177.730, 168.359 171.778, 167.853 167.492 L 167.500 164.500 185 164 L 202.500 163.500 202.140 157 C 201.637 147.933, 197.642 140.986, 190.906 137.466 C 186.790 135.315, 179.036 134.871, 173.943 136.495 M 221.834 136.522 C 215.116 138.667, 212 142.742, 212 149.381 C 212 153.972, 212.395 154.987, 215.250 157.724 C 217.037 159.438, 222.775 162.672, 228 164.911 C 238.216 169.289, 240 170.819, 240 175.206 C 240 179.839, 235.101 182.260, 227 181.630 C 223.425 181.352, 218.631 180.457, 216.346 179.641 C 212.379 178.223, 212.168 178.248, 211.662 180.186 C 210.109 186.123, 215.459 189, 228.050 189 C 239.586 189, 246.316 184.992, 248.098 177.059 C 249.963 168.758, 245.911 163.946, 232.077 158.033 C 226.960 155.846, 222.149 153.538, 221.386 152.906 C 219.205 151.096, 219.682 146.336, 222.223 144.557 C 224.840 142.723, 234.555 142.471, 240.370 144.086 C 244.496 145.231, 245.377 144.818, 246.461 141.230 C 247.038 139.323, 246.613 138.736, 243.805 137.563 C 238.460 135.330, 227.233 134.798, 221.834 136.522 M 418.462 135.597 C 417.933 135.729, 415.787 136.123, 413.694 136.474 C 411.124 136.905, 408.608 138.392, 405.944 141.056 L 402 145 402 141.019 C 402 137.608, 401.643 136.948, 399.502 136.411 C 393.945 135.016, 394 134.755, 394 162.526 L 394 188.115 398.250 187.807 L 402.500 187.500 403 170.500 C 403.529 152.515, 403.796 151.434, 408.913 146.564 C 411.453 144.147, 413.059 143.551, 417.999 143.194 L 424 142.760 424 139.496 C 424 136.890, 423.539 136.145, 421.712 135.796 C 420.454 135.555, 418.991 135.466, 418.462 135.597 M 465.143 136.493 C 459.652 138.206, 456.276 141.347, 455.004 145.926 C 453.472 151.441, 453.726 152.447, 457.750 156.795 C 460.475 159.740, 464.188 162.002, 471.339 165.072 C 481.819 169.571, 483.819 171.601, 482.591 176.492 C 481.830 179.526, 476.943 182.009, 471.782 181.984 C 468.524 181.969, 459.106 179.935, 455.750 178.523 C 454.301 177.913, 454 178.320, 454 180.893 C 454 187.205, 460.062 189.618, 473.954 188.833 C 483.148 188.313, 488.773 184.677, 490.740 177.979 C 491.463 175.516, 491.811 172.496, 491.513 171.268 C 490.372 166.569, 485.122 162.227, 476.023 158.455 C 465.982 154.293, 463 152.010, 463 148.484 C 463 144.230, 466.858 142.662, 475.769 143.294 C 480.021 143.595, 484.500 144.152, 485.722 144.530 C 487.495 145.080, 488.187 144.684, 489.149 142.572 C 490.851 138.836, 488.986 137.345, 481 136.061 C 472.813 134.744, 470.553 134.805, 465.143 136.493 M 294.627 137.530 C 293.821 139.630, 293.803 184.324, 294.607 186.418 C 295.014 187.480, 296.474 188, 299.046 188 C 302.790 188, 302.892 187.902, 303.518 183.729 C 303.870 181.380, 303.933 169.793, 303.657 157.979 L 303.155 136.500 299.204 136.199 C 296.280 135.976, 295.090 136.322, 294.627 137.530 M 433.714 136.619 C 433.321 137.012, 433 148.759, 433 162.724 L 433 188.115 437.250 187.807 L 441.500 187.500 441.500 162 L 441.500 136.500 437.964 136.202 C 436.020 136.039, 434.107 136.226, 433.714 136.619 M 562 162 L 562 188 566 188 L 570 188 570 162 L 570 136 566 136 L 562 136 562 162 M 173.615 145.088 C 170.554 147.496, 168 151.982, 168 154.950 C 168 156.907, 168.566 157, 180.500 157 L 193 157 193 154.565 C 193 151.048, 191.454 147.500, 188.873 145.096 C 185.733 142.171, 177.329 142.167, 173.615 145.088 M 69.367 247.487 C 69.038 248.345, 75.962 270.299, 84.755 296.273 L 100.742 343.500 112.535 343.500 L 124.328 343.500 131.570 322 C 135.553 310.175, 142.859 288.575, 147.805 274 C 152.752 259.425, 156.593 247.162, 156.340 246.750 C 155.749 245.783, 137.853 245.797, 136.393 246.765 C 135.784 247.169, 132.491 256.275, 129.076 267 C 125.661 277.725, 121.778 289.875, 120.447 294 C 119.115 298.125, 116.704 306.450, 115.088 312.500 C 113.473 318.550, 112.117 322.536, 112.075 321.358 C 111.991 318.948, 104.226 292.809, 95.334 265 L 89.419 246.500 79.692 246.214 C 71.625 245.976, 69.863 246.193, 69.367 247.487 M 169.676 246.734 C 168.811 248.169, 168.635 259.471, 168.818 301.750 L 169 344 197 344 L 225 344 225.162 340.250 C 225.813 325.147, 226.495 325.798, 210.249 326.012 C 202.687 326.111, 195.037 326.149, 193.250 326.096 L 190 326 190 314 L 190 302 206.500 302 L 223 302 223 293.500 L 223 285 218.750 284.847 C 216.412 284.762, 208.988 284.723, 202.250 284.759 L 190 284.824 190 274.412 L 190 264 207.539 264 L 225.078 264 224.789 255.250 L 224.500 246.500 197.319 246.234 C 182.369 246.088, 169.930 246.313, 169.676 246.734 M 245.327 247.589 C 244.649 249.356, 244.653 248.910, 244.859 305.266 L 245 344.031 273.250 343.766 L 301.500 343.500 301.500 335.500 L 301.500 327.500 284 326.940 C 274.375 326.632, 266.387 326.294, 266.250 326.190 C 266.113 326.085, 266 320.600, 266 314 L 266 302 282.500 302 L 299 302 299 293.500 L 299 285 294.750 284.931 C 292.413 284.893, 284.988 284.882, 278.250 284.907 L 266 284.953 266 274.476 L 266 264 283.539 264 L 301.078 264 300.789 255.250 L 300.500 246.500 273.225 246.234 C 248.840 245.996, 245.884 246.140, 245.327 247.589 M 321.458 247.250 C 321.195 247.938, 321.096 269.875, 321.240 296 L 321.500 343.500 345.500 343.500 C 365.921 343.500, 370.259 343.235, 374.590 341.723 C 382.681 338.898, 387.521 334.719, 391.084 327.481 C 393.890 321.780, 394.188 320.341, 393.840 314.175 C 393.333 305.196, 389.566 298.660, 382.772 294.969 L 378.113 292.438 381.020 291.152 C 388.130 288.004, 392.812 276.557, 390.968 266.830 C 388.696 254.850, 380.810 249.292, 362.896 247.046 C 350.705 245.518, 322.068 245.658, 321.458 247.250 M 412.458 247.250 C 412.195 247.938, 412.096 269.875, 412.240 296 L 412.500 343.500 423 343.500 L 433.500 343.500 433.760 296.114 C 433.947 261.957, 433.704 248.348, 432.887 247.364 C 431.353 245.515, 413.162 245.414, 412.458 247.250 M 458.697 246.715 C 458.229 247.505, 457.551 317.497, 457.843 334.750 L 458 344 487.924 344 L 517.848 344 518.174 335.945 C 518.353 331.515, 518.073 327.465, 517.550 326.945 C 517.021 326.419, 508.277 326, 497.811 326 L 479.023 326 478.761 286.250 L 478.500 246.500 468.831 246.215 C 463.513 246.058, 458.952 246.283, 458.697 246.715 M 555.631 248.750 C 554.849 250.262, 551.717 258.700, 548.671 267.500 C 541.107 289.348, 523.322 340.097, 522.475 342.250 C 521.843 343.856, 522.742 344, 533.364 344 L 544.942 344 548.045 333.750 C 549.752 328.113, 551.326 322.938, 551.543 322.250 C 551.838 321.313, 556.306 321, 569.398 321 L 586.858 321 588.484 326.750 C 589.378 329.913, 590.873 334.975, 591.805 338 L 593.500 343.500 604.750 343.783 C 611.239 343.946, 616 343.671, 616 343.133 C 616 342.621, 613.577 335.294, 610.615 326.851 C 600.609 298.330, 585.795 256.533, 583.820 251.250 L 581.856 246 569.454 246 L 557.051 246 555.631 248.750 M 628.421 247.344 C 628.138 248.083, 628.039 265.071, 628.203 285.094 C 628.496 321.008, 628.532 321.561, 630.835 326 C 635.424 334.841, 643.957 341.694, 653 343.799 C 666.361 346.910, 678.165 346.029, 688.308 341.165 C 695.419 337.754, 699.908 333.751, 703.378 327.725 C 707.641 320.324, 708.137 314.916, 707.807 279.500 L 707.500 246.500 697.804 246.214 C 689.187 245.961, 687.997 246.137, 687.108 247.799 C 686.493 248.947, 686.144 262.193, 686.202 282.120 C 686.288 311.255, 686.116 314.953, 684.522 318.313 C 683.545 320.371, 681.660 322.909, 680.333 323.953 C 676.749 326.772, 669.025 328.143, 663.078 327.015 C 656.766 325.818, 654.441 324.385, 651.693 320 C 649.563 316.601, 649.491 315.508, 649.189 282.021 C 648.961 256.765, 648.560 247.340, 647.689 246.787 C 647.035 246.371, 642.548 246.024, 637.719 246.015 C 631.277 246.004, 628.800 246.358, 628.421 247.344 M 731.240 246.830 C 730.250 247.459, 730.036 257.880, 730.240 295.565 L 730.500 343.500 761 343.500 L 791.500 343.500 791.639 336 C 791.715 331.875, 791.322 327.938, 790.766 327.250 C 790.022 326.330, 784.774 326, 770.878 326 L 752 326 752 286.607 C 752 251.608, 751.824 247.146, 750.418 246.607 C 748.098 245.717, 732.712 245.896, 731.240 246.830 M 808.700 246.633 C 808.315 247.018, 808 269.083, 808 295.667 L 808 344 818.510 344 L 829.019 344 828.760 295.250 L 828.500 246.500 818.950 246.216 C 813.698 246.060, 809.086 246.248, 808.700 246.633 M 853.517 247.214 C 852.753 249.410, 852.667 256.148, 852.836 300.750 L 853 344 863.500 344 L 874 344 874 326.633 L 874 309.266 878.112 306.545 C 880.373 305.048, 882.542 304.201, 882.931 304.662 C 883.320 305.123, 888.513 313.375, 894.471 323 C 900.429 332.625, 905.980 341.288, 906.807 342.250 C 908.074 343.726, 910.090 344, 919.655 344 C 925.895 344, 931 343.687, 931 343.304 C 931 342.921, 929.926 341.008, 928.614 339.054 C 923.796 331.876, 899.020 292.215, 898.487 290.827 C 898.165 289.987, 901.281 285.073, 906.022 278.947 C 927.183 251.601, 930 247.867, 930 247.158 C 930 246.740, 925.347 246.290, 919.660 246.159 C 910.934 245.957, 908.999 246.200, 907.264 247.710 C 905.069 249.621, 883.800 276.248, 877.985 284.365 L 874.500 289.230 874 267.865 L 873.500 246.500 863.733 246.214 C 856.463 246, 853.851 246.256, 853.517 247.214 M 343 274.500 L 343 285 349.750 284.989 C 364.313 284.965, 369 282.450, 369 274.659 C 369 266.569, 364.595 264.139, 349.750 264.044 L 343 264 343 274.500 M 568.586 265.107 C 566.861 270.312, 558 301.197, 558 302.002 C 558 302.608, 562.519 303, 569.500 303 C 575.825 303, 581 302.763, 581 302.474 C 581 301.630, 569.783 264.541, 569.397 264.107 C 569.205 263.891, 568.839 264.341, 568.586 265.107 M 342.809 313.938 L 342.500 325.875 345.803 326.493 C 350.662 327.401, 363.082 325.987, 366.234 324.167 C 369.278 322.408, 372 317.490, 372 313.747 C 372 310.009, 367.879 304.654, 363.965 303.306 C 362.059 302.650, 356.589 302.087, 351.809 302.056 L 343.118 302 342.809 313.938 M 271.427 378.118 C 270.512 379.598, 266.012 400.874, 266.005 403.750 C 266.002 405.073, 266.610 406, 267.481 406 C 268.295 406, 269.155 404.988, 269.390 403.750 C 269.626 402.512, 270.760 397.140, 271.909 391.812 C 273.059 386.484, 274 380.971, 274 379.562 C 274 376.917, 272.641 376.154, 271.427 378.118 M 423.975 379.565 C 423.439 380.976, 423 383.194, 423 384.495 C 423 386.653, 422.734 386.784, 419.972 385.992 C 418.125 385.462, 415.804 385.521, 414.022 386.142 C 408.849 387.946, 405.221 398.807, 408.035 404.065 C 408.909 405.698, 410.060 405.971, 415.435 405.823 L 421.802 405.647 423.037 399.574 C 423.716 396.233, 425.054 390.125, 426.010 386 C 426.966 381.875, 427.554 378.163, 427.315 377.750 C 426.443 376.240, 424.926 377.064, 423.975 379.565 M 454.444 380.688 C 453.880 383.895, 451.483 395.030, 449.479 403.750 C 449.077 405.498, 449.402 406, 450.936 406 C 452.436 406, 453.063 405.101, 453.549 402.250 C 453.901 400.188, 455.029 394.675, 456.056 390 C 458.705 377.940, 458.724 377.619, 456.807 377.224 C 455.533 376.962, 454.948 377.819, 454.444 380.688 M 559.520 384.750 C 558.595 389.012, 557.236 395.192, 556.499 398.482 C 555.087 404.793, 555.690 408.284, 557.761 405.788 C 558.992 404.304, 564 383.097, 564 379.366 C 564 378.005, 563.405 377, 562.600 377 C 561.666 377, 560.642 379.576, 559.520 384.750 M 613.109 379.214 C 612.612 380.520, 611.242 386.294, 610.064 392.045 C 608.886 397.795, 607.685 403.288, 607.394 404.250 C 607.018 405.494, 607.422 406, 608.792 406 C 610.458 406, 611.096 404.204, 613.500 392.750 C 616.897 376.561, 616.752 377.842, 615.256 377.294 C 614.572 377.043, 613.606 377.907, 613.109 379.214 M 328.244 379.250 C 327.003 380.800, 321.888 405.010, 322.569 406.112 C 323.664 407.883, 325.983 405.590, 326.574 402.153 C 326.920 400.144, 328.057 395.050, 329.101 390.833 C 331.797 379.949, 331.449 375.248, 328.244 379.250 M 638.754 379.774 C 637.240 381.501, 634 387.415, 634 388.450 C 634 388.753, 634.603 389, 635.341 389 C 636.997 389, 642.387 379.357, 641.156 378.597 C 640.667 378.294, 639.586 378.824, 638.754 379.774 M 751.802 379.017 C 744.139 380.366, 739.237 387.347, 739.076 397.139 C 738.975 403.318, 741.278 406.200, 746.317 406.200 C 750.735 406.200, 752.805 404.707, 754.712 400.146 C 757.411 393.687, 754.617 389, 748.066 389 C 746.380 389, 745 388.529, 745 387.952 C 745 386.104, 750.215 382, 752.564 382 C 755.391 382, 758 381.040, 758 380 C 758 378.694, 755.706 378.330, 751.802 379.017 M 195.983 383.034 C 194.028 386.865, 194.039 389, 196.012 389 C 196.733 389, 201 380.764, 201 379.373 C 201 379.168, 200.334 379, 199.520 379 C 198.707 379, 197.114 380.815, 195.983 383.034 M 202.685 382.534 C 200.792 386.503, 200.519 389, 201.977 389 C 203.283 389, 205.704 385.155, 206.541 381.750 C 207.554 377.628, 204.753 378.198, 202.685 382.534 M 210.439 382.750 C 210.081 384.813, 208.936 390.433, 207.894 395.239 C 206.852 400.046, 206 404.434, 206 404.989 C 206 405.574, 208.951 406, 213 406 C 218.556 406, 220 405.690, 220 404.500 C 220 403.366, 218.776 403, 214.981 403 C 210.301 403, 209.994 402.848, 210.441 400.750 C 210.705 399.512, 211.652 394.900, 212.546 390.500 C 213.440 386.100, 214.388 381.712, 214.653 380.750 C 214.997 379.501, 214.555 379, 213.113 379 C 211.559 379, 210.940 379.868, 210.439 382.750 M 629.530 383.561 C 626.793 390.728, 629.410 391.037, 633.014 383.972 C 635.451 379.196, 635.456 379, 633.136 379 C 631.844 379, 630.737 380.400, 629.530 383.561 M 676.566 380.127 C 675.337 383.751, 671.345 405.012, 671.807 405.474 C 672.817 406.484, 675 405.990, 675.006 404.750 C 675.009 404.063, 675.466 401.862, 676.022 399.861 C 676.943 396.546, 677.423 396.164, 681.421 395.564 C 687.516 394.650, 691 391.233, 691 386.170 C 691 381.164, 689.291 379.772, 682.455 379.205 C 678.442 378.872, 676.910 379.112, 676.566 380.127 M 722.725 380.752 C 719.825 383.956, 718.837 387.975, 720.048 391.644 C 721.234 395.240, 724.051 396.606, 728.518 395.752 C 731.741 395.136, 731.669 396.692, 728.313 400.195 C 726.289 402.308, 724.685 403, 721.813 403 C 719.220 403, 718 403.446, 718 404.393 C 718 407.935, 726 407.131, 730.274 403.158 C 735.195 398.585, 737.630 385.773, 734.443 381.223 C 732.443 378.367, 725.148 378.074, 722.725 380.752 M 776.750 381.068 C 772.833 383.136, 771.701 386, 774.800 386 C 775.790 386, 777.206 385.438, 777.947 384.750 C 779.054 383.723, 779.167 383.857, 778.583 385.500 C 778.191 386.600, 777.261 390.650, 776.516 394.500 C 775.772 398.350, 774.854 402.284, 774.477 403.242 C 774.026 404.390, 774.353 405.198, 775.439 405.615 C 776.345 405.963, 777.288 406.046, 777.534 405.800 C 778.013 405.320, 783 381.842, 783 380.064 C 783 378.506, 780.991 378.829, 776.750 381.068 M 679.621 383.750 C 679.338 384.712, 678.821 387.115, 678.472 389.089 L 677.838 392.677 681.169 392.213 C 683.001 391.958, 685.063 391.300, 685.750 390.752 C 687.341 389.483, 687.372 384.772, 685.800 383.200 C 684.003 381.403, 680.211 381.741, 679.621 383.750 M 724.985 383.518 C 724.292 384.353, 723.674 386.716, 723.612 388.768 C 723.518 391.893, 723.858 392.551, 725.698 392.813 C 730.745 393.531, 733.498 389.067, 731.393 383.582 C 730.621 381.569, 726.635 381.530, 724.985 383.518 M 230.256 386.029 C 225.210 388.058, 221.564 399.160, 224.482 403.613 C 225.846 405.695, 226.731 405.953, 232.024 405.807 L 238.019 405.641 238.895 402.071 C 239.377 400.107, 240.430 395.645, 241.236 392.155 L 242.701 385.810 239.889 386.372 C 238.343 386.681, 236.809 386.499, 236.480 385.967 C 235.753 384.791, 233.273 384.816, 230.256 386.029 M 260.800 386.282 C 259.978 386.952, 258.745 390.129, 258.060 393.342 C 256.737 399.552, 254.237 403, 251.059 403 C 248.164 403, 248.028 402.131, 249.670 394.150 C 251.230 386.567, 251.075 385.374, 248.647 386.305 C 246.864 386.989, 244.451 399.677, 245.391 403.422 C 246.043 406.021, 246.221 406.077, 252.715 405.733 L 259.370 405.381 261.538 395.659 C 263.715 385.893, 263.568 384.026, 260.800 386.282 M 281.308 385.972 C 277.845 387.426, 275.716 391.430, 276.502 395.009 C 277.199 398.181, 275.132 404.010, 272.312 406.831 C 270.705 408.438, 271.446 411.906, 273.792 413.750 C 275.785 415.316, 282.421 415.374, 285.316 413.850 C 288.197 412.334, 288.966 411.059, 288.985 407.773 C 289.001 404.830, 286.510 402.704, 281.750 401.600 C 277.947 400.718, 278.295 399, 282.277 399 C 286.896 399, 290 396.553, 290 392.912 C 290 391.190, 290.632 389.695, 291.500 389.362 C 293.641 388.540, 293.358 386, 291.125 386 C 290.094 386, 287.956 385.786, 286.375 385.526 C 284.794 385.265, 282.514 385.465, 281.308 385.972 M 300.756 386.569 C 297.686 388.234, 294 394.650, 294 398.325 C 294 399.648, 294.950 401.939, 296.112 403.415 C 297.945 405.745, 298.837 406.061, 302.853 405.800 C 306.120 405.588, 307.570 405.034, 307.782 403.917 C 308.014 402.692, 307.420 402.431, 305.156 402.764 C 301.803 403.256, 298 401.566, 298 399.584 C 298 398.826, 299.935 397.750, 302.424 397.124 C 307.867 395.753, 310 393.737, 310 389.964 C 310 385.343, 305.835 383.813, 300.756 386.569 M 337 385.694 C 334.918 386.438, 333 389.044, 333 391.128 C 333 392.088, 334.643 394.425, 336.652 396.320 C 341.649 401.034, 340.812 403.464, 334.438 402.746 C 329.341 402.171, 328.834 403.616, 333.359 405.822 C 341.904 409.986, 348.039 400.318, 340.500 394.568 C 335.968 391.111, 335.863 388.785, 340.250 389.025 C 345.242 389.298, 346 389.111, 346 387.607 C 346 385.327, 341 384.264, 337 385.694 M 352.378 385.984 C 349.898 386.986, 348.540 391.271, 349.898 393.810 C 350.419 394.783, 351.981 396.187, 353.370 396.930 C 359.045 399.968, 357.201 403.418, 350.352 402.576 C 346.669 402.123, 346.259 402.276, 346.694 403.939 C 347.002 405.116, 348.446 406.049, 350.578 406.449 C 359.353 408.095, 363.467 399.746, 356.500 394.432 C 351.605 390.699, 351.918 389, 357.500 389 C 360.680 389, 362 388.591, 362 387.607 C 362 385.117, 356.727 384.227, 352.378 385.984 M 372 385.716 C 368.747 386.884, 366.095 390.437, 364.967 395.137 C 362.824 404.072, 367.103 409.067, 373.892 405.556 C 375.868 404.534, 377 404.352, 377 405.058 C 377 405.668, 377.517 405.994, 378.149 405.784 C 379.390 405.370, 381.390 398.263, 382.328 390.932 C 382.895 386.492, 382.836 386.363, 380.206 386.347 C 378.718 386.338, 376.600 386.071, 375.500 385.754 C 374.400 385.437, 372.825 385.420, 372 385.716 M 395.008 385.974 C 394.188 386.492, 392.505 386.663, 391.268 386.352 C 388.826 385.740, 388.873 385.658, 387.159 393.500 C 384.671 404.880, 384.598 406.225, 386.491 405.848 C 387.735 405.601, 388.746 403.496, 389.980 398.590 C 391.713 391.696, 393.723 389, 397.132 389 C 399.816 389, 399.960 389.989, 398.440 397.965 C 396.951 405.783, 397.046 406.580, 399.359 405.692 C 400.984 405.069, 403 396.927, 403 390.986 C 403 385.882, 399.061 383.412, 395.008 385.974 M 467.500 385.716 C 461.619 387.139, 457.540 397.276, 460.526 403.050 C 461.933 405.772, 462.475 406, 467.526 406 C 472.274 406, 473 405.743, 473 404.063 C 473 402.427, 472.483 402.210, 469.674 402.665 C 467.341 403.044, 465.848 402.705, 464.674 401.531 C 462.162 399.019, 462.570 398.380, 467.581 396.977 C 470.101 396.272, 472.801 395.056, 473.581 394.276 C 475.682 392.175, 475.375 387.271, 473.066 386.035 C 471.039 384.951, 470.735 384.933, 467.500 385.716 M 491.368 385.792 C 490.035 386.639, 487.632 399.452, 488.141 403 C 488.479 405.351, 488.842 405.493, 494.250 405.384 C 497.727 405.314, 500 405.689, 500 406.334 C 500 407.010, 500.443 406.957, 501.209 406.191 C 502.247 405.153, 505.810 390.923, 505.952 387.250 C 505.978 386.563, 505.342 386, 504.539 386 C 503.658 386, 502.642 387.688, 501.982 390.250 C 499.715 399.051, 498.741 401.161, 496.464 402.198 C 495.179 402.784, 493.472 403.011, 492.670 402.704 C 491.394 402.214, 491.394 401.186, 492.669 394.435 C 494.079 386.968, 493.681 384.323, 491.368 385.792 M 513.418 385.792 C 512.453 386.433, 511.104 390.764, 509.537 398.250 C 509.221 399.762, 509.244 402.125, 509.589 403.500 C 510.107 405.564, 510.820 406, 513.674 406 C 515.576 406, 518.002 405.534, 519.066 404.965 C 520.399 404.251, 521 404.251, 521 404.965 C 521 405.534, 521.643 406, 522.429 406 C 523.370 406, 524.249 404.034, 525.002 400.250 C 525.632 397.087, 526.561 392.925, 527.068 391 C 528.316 386.258, 528.270 386, 526.178 386 C 524.738 386, 524.066 387.390, 522.972 392.635 C 522.210 396.284, 520.974 399.883, 520.224 400.633 C 518.639 402.218, 514.181 403.514, 513.311 402.644 C 512.983 402.316, 513.417 398.549, 514.277 394.274 C 515.804 386.678, 515.569 384.362, 513.418 385.792 M 590.296 386.208 C 588.934 387.936, 587.721 394.361, 587.599 400.500 L 587.500 405.500 591.320 405.815 C 593.421 405.988, 595.704 405.661, 596.394 405.088 C 597.271 404.360, 598.001 404.401, 598.824 405.224 C 600.643 407.043, 601.463 405.323, 603.399 395.635 C 604.623 389.512, 604.850 386.450, 604.133 385.733 C 602.959 384.559, 602.201 386.099, 599.331 395.492 C 597.843 400.361, 596.984 401.662, 594.745 402.437 C 590.497 403.906, 589.946 402.425, 591.662 394.143 C 593.165 386.886, 592.555 383.343, 590.296 386.208 M 698.413 386.038 C 694.028 386.951, 693 387.795, 693 390.481 C 693 392.015, 694.456 394.090, 697.146 396.393 C 700.774 399.498, 701.123 400.147, 699.936 401.578 C 698.928 402.791, 697.474 403.088, 694.289 402.729 C 691.930 402.463, 690 402.550, 690 402.923 C 690 406.226, 700.286 407.309, 702.608 404.250 C 705.057 401.024, 704.278 397.450, 700.500 394.568 C 695.568 390.806, 695.892 389, 701.500 389 C 704.665 389, 706 388.590, 706 387.617 C 706 385.908, 702.518 385.183, 698.413 386.038 M 762.250 385.667 C 761.563 385.942, 761 387.060, 761 388.153 C 761 389.641, 761.565 390.059, 763.250 389.820 C 764.690 389.615, 765.500 388.810, 765.500 387.583 C 765.500 385.549, 764.305 384.845, 762.250 385.667 M 432.213 388.274 C 427.607 393.178, 427.581 405.134, 432.174 406.335 C 433.351 406.643, 435.793 406.278, 437.599 405.523 C 440.053 404.498, 440.993 404.448, 441.317 405.325 C 442.198 407.714, 443.767 404.402, 445.261 397 C 446.094 392.875, 447.073 388.781, 447.436 387.902 C 448.002 386.534, 447.101 386.285, 441.200 386.176 C 435.268 386.066, 434.011 386.360, 432.213 388.274 M 531.950 388.093 C 530.372 391.042, 531.558 394.673, 534.766 396.714 C 538.226 398.916, 538.953 399.960, 538.267 401.746 C 537.870 402.782, 536.383 403.081, 532.859 402.837 C 527.655 402.476, 526.955 403.622, 531.079 405.748 C 533.589 407.042, 538.547 406.536, 540.750 404.762 C 541.438 404.208, 542 402.258, 542 400.428 C 542 397.150, 541.813 396.934, 534.029 391.236 C 532.913 390.419, 536.806 389.029, 540.250 389.015 C 542.910 389.004, 544 388.564, 544 387.500 C 544 386.350, 542.726 386, 538.535 386 C 534.013 386, 532.877 386.361, 531.950 388.093 M 568.359 390.033 C 565.340 394.595, 564.620 401.631, 566.891 404.369 C 567.982 405.683, 569.604 405.972, 574.391 405.705 L 580.500 405.364 582.192 397.432 C 584.766 385.363, 585.027 386, 577.514 386 C 571.046 386, 571.021 386.011, 568.359 390.033 M 793.433 387.710 C 789.247 391.896, 787.609 401.466, 790.571 404.429 C 792.307 406.164, 796.686 406.484, 798.966 405.042 C 799.900 404.452, 800.908 404.509, 801.741 405.200 C 803.603 406.746, 803.867 406.205, 805.542 397.397 C 806.368 393.053, 807.289 388.712, 807.589 387.750 C 808.070 386.207, 807.367 386, 801.639 386 C 796.843 386, 794.695 386.448, 793.433 387.710 M 281.046 389.445 C 279.158 391.720, 280.155 395.451, 282.748 395.819 C 284.428 396.058, 285.260 395.445, 286.039 393.397 C 286.613 391.889, 286.852 390.058, 286.572 389.328 C 285.895 387.563, 282.548 387.634, 281.046 389.445 M 229.353 391.584 C 228.422 393.005, 227.624 396.042, 227.580 398.334 C 227.512 401.870, 227.826 402.546, 229.658 402.807 C 230.896 402.984, 232.677 402.190, 233.839 400.942 C 235.949 398.678, 237.633 391.833, 236.523 390.037 C 235.284 388.033, 231.086 388.939, 229.353 391.584 M 302.239 389.666 C 301.545 389.946, 300.516 391.035, 299.953 392.087 C 299.074 393.730, 299.277 394, 301.393 394 C 302.748 394, 304.568 393.289, 305.438 392.419 C 307.928 389.929, 305.906 388.188, 302.239 389.666 M 371.736 390.250 C 368.252 392.896, 366.735 401.577, 369.567 402.664 C 373.583 404.205, 378 398.541, 378 391.851 C 378 389.540, 377.563 389, 375.691 389 C 374.421 389, 372.642 389.563, 371.736 390.250 M 413.025 391.696 C 410.449 394.970, 410.490 402.291, 413.087 402.783 C 416.329 403.397, 419.230 399.657, 419.756 394.186 C 420.239 389.161, 420.175 389, 417.700 389 C 416.116 389, 414.339 390.025, 413.025 391.696 M 434.433 391.462 C 432.323 394.683, 431.398 401.510, 432.943 402.464 C 436.900 404.911, 442 399.037, 442 392.032 C 442 389.335, 441.671 389, 439.023 389 C 436.963 389, 435.549 389.759, 434.433 391.462 M 466.200 390.200 C 464.421 391.979, 464.745 394, 466.809 394 C 469.364 394, 472.442 391.525, 471.594 390.152 C 470.666 388.650, 467.723 388.677, 466.200 390.200 M 571.613 391.190 C 570.782 392.460, 569.797 395.405, 569.425 397.733 C 568.650 402.593, 570.347 404.074, 574.513 402.176 C 576.942 401.070, 579.454 394.623, 578.800 391.175 C 578.285 388.454, 573.397 388.465, 571.613 391.190 M 794.461 392.439 C 793.671 394.330, 792.906 397.368, 792.762 399.188 C 792.544 401.947, 792.871 402.552, 794.729 402.816 C 798.500 403.353, 802 398.891, 802 393.545 C 802 389.145, 801.903 389, 798.949 389 C 796.418 389, 795.653 389.586, 794.461 392.439 M 744.750 393.080 C 742.997 394.101, 742.419 398.321, 743.607 401.418 C 745.068 405.226, 752 401.786, 752 397.253 C 752 392.276, 749.048 390.577, 744.750 393.080 M 649.533 394.947 C 648.326 396.899, 650.019 397.879, 654.271 397.689 C 657.280 397.555, 658.500 397.067, 658.500 396 C 658.500 394.211, 650.564 393.279, 649.533 394.947 M 616.500 403 C 615.577 404.494, 616.861 406, 619.059 406 C 620.333 406, 621 405.313, 621 404 C 621 401.879, 617.653 401.135, 616.500 403 M 757.446 403.087 C 757.077 403.685, 757.227 404.627, 757.781 405.181 C 759.258 406.658, 762.425 405.750, 762.812 403.739 C 763.058 402.459, 762.482 402, 760.632 402 C 759.249 402, 757.816 402.489, 757.446 403.087 M 276.441 406.441 C 272.286 409.527, 279.043 413.653, 283.951 411.026 C 286.764 409.521, 286.522 407.149, 283.435 405.975 C 279.976 404.660, 278.728 404.743, 276.441 406.441" stroke="none" fill="#040404" fill-rule="evenodd"/></svg>